<?xml version="1.0" standalone="no"?>
<!DOCTYPE svg PUBLIC "-//W3C//DTD SVG 1.1//EN" "http://www.w3.org/Graphics/SVG/1.1/DTD/svg11.dtd" >
<svg>
<metadata>
Created by FontForge 20090622 at Wed May 29 13:08:32 2019
 By deploy user
</metadata>
<defs>
<font id="Fashion-Extended" horiz-adv-x="500" >
  <font-face 
    font-family="Fashion Extended"
    font-weight="400"
    font-stretch="normal"
    units-per-em="1000"
    panose-1="0 0 0 0 0 0 0 0 0 0"
    ascent="750"
    descent="-250"
    x-height="500"
    cap-height="676"
    bbox="-369 -285 2262 709"
    underline-thickness="0"
    underline-position="0"
    unicode-range="U+0020-U+FB06"
  />
<missing-glyph 
d="M50 -250v925h400v-925h-400zM100 -200h300v825h-300v-825z" />
    <glyph glyph-name=".notdef" 
d="M50 -250v925h400v-925h-400zM100 -200h300v825h-300v-825z" />
    <glyph glyph-name=".null" horiz-adv-x="0" 
 />
    <glyph glyph-name="nonmarkingreturn" horiz-adv-x="333" 
 />
    <glyph glyph-name="space" unicode=" " 
 />
    <glyph glyph-name="exclam" unicode="!" horiz-adv-x="827" 
d="M11 674h654l-200 -435h-254zM112 0v200h453v-200h-453z" />
    <glyph glyph-name="comma" unicode="," horiz-adv-x="671" 
d="M643 0q-1 -122 -63.5 -186t-203.5 -64h-392l-92 202l298 -1v249h453v-200zM427 -49q96 0 144 11t71 38q-270 15 -440 -49h225z" />
    <glyph glyph-name="period" unicode="." horiz-adv-x="671" 
d="M130 0v200h453v-200h-453z" />
    <glyph glyph-name="less" unicode="&#x3c;" horiz-adv-x="1025" 
d="M54 368l871 126v-206l-871 -39v119zM54 130v119l871 -40v-205z" />
    <glyph glyph-name="greater" unicode="&#x3e;" horiz-adv-x="1021" 
d="M971 368v-119l-871 39v215zM971 130l-871 -131v205l871 45v-119z" />
    <glyph glyph-name="A" unicode="A" horiz-adv-x="1172" 
d="M-100 0v10l341 331l240 332h202l238 -332l351 -331v-10h-1372zM255 331l326 -312l326 312q-326 -218 -652 0z" />
    <glyph glyph-name="C" unicode="C" horiz-adv-x="1294" 
d="M1164 355q-57 0 -204.5 11.5l-294.5 22t-294 15.5t-238.5 -11t-91.5 -55q0 -44 92 -63t239 -14.5t293.5 15t294.5 23t203 12.5v-311l-267 1q-131 0 -230 4.5t-203.5 16.5t-178 36t-133.5 60.5t-90 92t-30 127.5q0 338 863 338l270 -1v-320z" />
    <glyph glyph-name="D" unicode="D" horiz-adv-x="1375" 
d="M0 0v10l427 328l-427 327v10h974q93 0 168 -30.5t120 -80t69 -108t24 -119.5q0 -156 -96 -246.5t-287 -90.5h-972zM437 337q0 -8 70 -19t198.5 -20t266.5 -9q216 0 294.5 9t78.5 39q0 18 -35 29t-117 16.5t-218 5.5q-138 0 -267.5 -9.5t-200 -21t-70.5 -20.5z" />
    <glyph glyph-name="E" unicode="E" horiz-adv-x="1226" 
d="M30 0v674h1176l-140 -304v-65l140 -305h-1176zM33 445l1027 -73q-249 107 -520.5 127t-506.5 -54zM33 229q225 -70 506.5 -50.5t523.5 125.5z" />
    <glyph glyph-name="F" unicode="F" horiz-adv-x="957" 
d="M-48 0v10l272 199v189l-274 267v10h1087v-256q-134 50 -328.5 64t-333.5 -6t-141 -58q1 -15 40 -18.5t109 2t146 12.5t171 14t165 7v-228h-634l508 -198v-10h-787z" />
    <glyph glyph-name="G" unicode="G" horiz-adv-x="1194" 
d="M1163 0h-244q-1 116 226 371l-428 -371l-66 1q-68 0 -125.5 3t-123 12t-117 24t-100.5 41t-82 60.5t-52.5 84.5t-19.5 112q0 338 863 338l270 -1v-261q-189 34 -456 36.5t-467 -28.5t-200 -84q0 -42 63.5 -52.5t181.5 4.5t250.5 36.5t308.5 41t318 19.5v-387z" />
    <glyph glyph-name="H" unicode="H" horiz-adv-x="1334" 
d="M697 20l393 199q-168 -51 -389.5 -51t-406.5 52zM697 655l-399 -198q179 48 398.5 48t393.5 -49zM-50 0v20l304 220v195l-304 220v20h1484v-20l-303 -220l-2 1v-197l2 1l303 -220v-20h-1484z" />
    <glyph glyph-name="I" unicode="I" horiz-adv-x="1021" 
d="M-3 180l498 157l-498 169v170h1000v-170l-499 -170l499 -156v-180h-1000v180z" />
    <glyph glyph-name="J" unicode="J" horiz-adv-x="973" 
d="M191 697q150 0 238 -86.5t88 -223.5q-166 0 -252 -1t-203 -5t-169.5 -15t-52.5 -28t63.5 -29t162.5 -18t187.5 -8.5t169.5 -2.5q260 0 381.5 22t142.5 97l-443 266v10h449v-280q-1 -122 -33.5 -204.5t-100.5 -131t-162.5 -69t-231.5 -20.5q-594 0 -594 369q0 156 101 257
t259 101z" />
    <glyph glyph-name="K" unicode="K" horiz-adv-x="1121" 
d="M-40 0v10l447 238l-469 417v10h407l67 -424l20 380q324 -27 688 44v-10l-392 -234l543 -421v-10h-1311zM419 247l303 -231v412z" />
    <glyph glyph-name="L" unicode="L" horiz-adv-x="1429" 
d="M4 0v10l332 320l-336 334v10h700v-10l-332 -321h1061l-345 -333v-10h-1080z" />
    <glyph glyph-name="M" unicode="M" horiz-adv-x="1405" 
d="M-80 0v20l444 352l-414 283v20h1484v-20l-413 -283l444 -352v-20h-567v20l105 336l-300 -353h-20l-302 355l106 -338v-20h-567zM697 655l-275 -247q276 123 539 3z" />
    <glyph glyph-name="N" unicode="N" horiz-adv-x="1305" 
d="M-100 0v10l339 337l-344 318v10h500l556 -320l-321 310v10h700v-10l-338 -336l413 -331h-500l-633 329l328 -317v-10h-700z" />
    <glyph glyph-name="O" unicode="O" horiz-adv-x="1251" 
d="M61 329q0 157 153 266t430 109q135 0 247.5 -31t186.5 -83t114.5 -119t40.5 -140q0 -68 -40.5 -132t-114 -114.5t-187.5 -81t-249 -30.5q-141 0 -254 30t-183 80t-107 113t-37 133zM71 329q0 -51 573 -51q579 0 579 53q0 10 -42.5 19.5t-181.5 18.5t-355 9
q-573 0 -573 -49z" />
    <glyph glyph-name="P" unicode="P" horiz-adv-x="1605" 
d="M23 0v10l489 210l-491 445v10h1163q150 0 262.5 -82.5t112.5 -214.5q0 -78 -32.5 -133t-89.5 -83t-118.5 -40t-135.5 -12q-130 0 -257.5 21t-248 51.5t-157.5 36.5l633 -209v-10h-1130zM292 426l6 -5q814 -87 888 -87q210 0 284 7.5t74 36.5q0 27 -120.5 37.5
t-238.5 10.5h-893z" />
    <glyph glyph-name="Q" unicode="Q" horiz-adv-x="1251" 
d="M-67 359q0 81 46 143t128.5 99t188.5 55.5t234 18.5q132 0 236.5 -22.5t169 -58t107.5 -82.5t59.5 -92.5t16.5 -91.5l262 -327h-407l-261 326q6 -86 -7 -144.5t-54.5 -104t-122.5 -67t-206 -21.5q-183 0 -286.5 105t-103.5 264zM-57 359q0 -31 360 -31h806q-5 72 -580 72
q-586 0 -586 -41z" />
    <glyph glyph-name="R" unicode="R" horiz-adv-x="1347" 
d="M353 425q2 142 137.5 213t369.5 71q242 0 377.5 -70.5t135.5 -216.5q0 -112 -136 -171t-367 -60l661 -181v-10h-1570v10l387 410l-415 245v7l420 3v-250zM362 423q0 -15 169.5 -23.5t329.5 -8.5q151 0 329 7t178 23q0 44 -507 44q-152 0 -325.5 -12t-173.5 -30zM378 378
l200 -368l276 181q-161 2 -287 51t-189 136z" />
    <glyph glyph-name="S" unicode="S" horiz-adv-x="1193" 
d="M1163 21q-79 -27 -193 -37.5t-304 -10.5q-176 0 -291.5 14t-263.5 49v302q55 -17 109 -27q-69 83 -13 167q70 105 298 157q165 37 387 37q148 0 275.5 -26t186.5 -61v-292q-41 23 -85 39q48 -39 56 -99t-33.5 -120.5t-128.5 -91.5zM795 384q-445 0 -552 -77
q20 -3 40.5 -5.5t45.5 -4.5t42 -3.5t48 -2.5t44.5 -1.5t51.5 -0.5h49h56h56q276 0 416 9t155 41q-66 21 -153 31.5t-139 12t-139 1.5h-21z" />
    <glyph glyph-name="T" unicode="T" horiz-adv-x="1410" 
d="M330 0v10l396 429l-656 -94v330h1320v-330l-656 94l396 -429v-10h-800z" />
    <glyph glyph-name="U" unicode="U" horiz-adv-x="1285" 
d="M-2 674h520l70 -255q-123 0 -260 -8.5t-227 -21t-90 -23.5q0 -22 211 -40t393 -18q193 0 405.5 17.5t212.5 40.5q0 19 -201.5 36t-376.5 17l70 256h520v-309q0 -202 -142.5 -293.5t-478.5 -91.5q-316 0 -471 94t-155 291v308z" />
    <glyph glyph-name="V" unicode="V" horiz-adv-x="1410" 
d="M18 675h484l211 -665l211 665h484l-339 -674h-718z" />
    <glyph glyph-name="W" unicode="W" horiz-adv-x="1467" 
d="M90 675h1066l-142 -675h-250l-141 670l-141 -670h-250z" />
    <glyph glyph-name="X" unicode="X" 
 />
    <glyph glyph-name="Y" unicode="Y" horiz-adv-x="1605" 
d="M333 0v10l478 209l-747 237v220h675l85 -424l85 424h675v-220l-748 -238l477 -208v-10h-980z" />
    <glyph glyph-name="Z" unicode="Z" horiz-adv-x="1334" 
d="M92 675h1194v-10l-602 -324l601 -6l1 -335h-1250v10l601 329h-544z" />
    <glyph glyph-name="bracketleft" unicode="[" 
 />
    <glyph glyph-name="a" unicode="a" horiz-adv-x="1196" 
d="M82 393q204 108 499 108q109 0 188.5 -15t124.5 -38t71 -59t34 -69.5t8 -77.5h-1l340 -233v-10h-350v242v1q0 6 -34 14t-135 15.5t-245 7.5q-131 0 -257 -17t-149 -34q210 -10 513 -7t307 20q0 -54 -10.5 -90t-41 -68.5t-85 -50.5t-143 -28.5t-215.5 -10.5
q-94 0 -165 6.5t-133.5 23.5t-102 44.5t-61 70.5t-19.5 102q22 -5 149 -12q-5 8 -16 28.5l-22.5 43.5l-23 44.5l-18.5 35.5t-7 13z" />
    <glyph glyph-name="b" unicode="b" horiz-adv-x="1385" 
d="M1355 258q0 -133 -149 -212t-410 -79q-230 0 -383.5 66t-177.5 183v-216h-345v10l336 249l-376 406v10h385v-380q24 114 177 179.5t381 65.5q246 0 404 -76.5t158 -205.5zM239 248q0 -9 65 -19t197 -17.5t292 -7.5q175 0 306.5 7.5t189 17.5t57.5 20q0 9 -58.5 17.5
t-188 14.5t-304.5 6q-163 0 -294 -6t-196.5 -15t-65.5 -18z" />
    <glyph glyph-name="c" unicode="c" horiz-adv-x="1197" 
d="M25 247q0 115 139.5 196t398.5 81q323 0 497 -73l-51 -186q-143 21 -482 21q-121 0 -236 -5.5t-185.5 -15t-70.5 -18.5q0 -16 195.5 -23.5t367.5 -7.5q119 0 173 1t174 15t216 43l46 -192q-17 -11 -53.5 -25t-103.5 -32.5t-175.5 -30.5t-235.5 -12q-99 0 -176 4.5
t-149 15t-123 30t-89.5 48t-57.5 70.5t-19 96z" />
    <glyph glyph-name="d" unicode="d" horiz-adv-x="1392" 
d="M25 252q0 86 75.5 148.5t204.5 93t292 27.5q171 -3 292 -36t268 -100l-550 290h564v-297q0 -27 -1 -65t-1 -58l333 -244v-11h-335v222q-12 -77 -91 -134t-202 -85t-274 -28q-109 0 -210 17.5t-183.5 51t-132 87.5t-49.5 121zM33 252q0 -9 68.5 -17.5t200.5 -14t295 -5.5
q178 0 310 6t192.5 14.5t60.5 17.5t-61.5 17t-192.5 13.5t-307 5.5q-164 0 -296.5 -5.5t-201 -14t-68.5 -17.5z" />
    <glyph glyph-name="e" unicode="e" horiz-adv-x="1173" 
d="M25 250q0 123 133 203t359 80q133 0 228 -16t146.5 -40.5t81 -64t37 -74.5t7.5 -85q61 19 115 50l51 -202q-42 -46 -191 -87t-393 -41q-99 0 -182 8.5t-156.5 29t-125 52t-81 79t-29.5 108.5zM35 250q0 -16 211.5 -23.5t389.5 -7.5q138 0 219 5.5t150 25.5
q-11 7 -40.5 15t-149.5 18.5t-299 10.5q-151 0 -265 -7t-165 -17t-51 -20z" />
    <glyph glyph-name="f" unicode="f" horiz-adv-x="1091" 
d="M29 366h252l-2 36q0 110 112.5 197t302.5 87q45 0 85.5 -2l69 -3.5t60.5 -7t47.5 -7.5t42.5 -9.5l32.5 -9t32 -10.5t27.5 -9l-30 -241q-159 24 -360 24q-177 0 -274 -9t-129 -36h764v-202h-763l761 -154v-10h-1150v10l374 154h-255v202z" />
    <glyph glyph-name="g" unicode="g" horiz-adv-x="1302" 
d="M444 -50h809l-200 -200h-608q-100 0 -184.5 17t-140.5 44t-95.5 62.5t-57 72t-17.5 71.5q0 85 50.5 157t102.5 75q1 85 78.5 143t197 83t271.5 25q222 0 368 -50t173 -155l-29 265h10l250 -61v-10l-225 -247v1q-2 -62 -47.5 -110t-122 -76t-171.5 -42t-204 -14
q-101 0 -193 12.5t-173 39t-130.5 75t-52.5 112.5q-33 -35 -37 -75.5t22 -77.5t72.5 -67.5t118.5 -49.5t156 -20h9zM109 247q0 -23 540 -23q539 0 539 24q0 10 -62 20t-190 18t-286 8q-147 0 -276 -8t-197 -19t-68 -20z" />
    <glyph glyph-name="h" unicode="h" horiz-adv-x="1292" 
d="M661 146q-207 0 -436 70l437 -206l419 202q-195 -66 -420 -66zM-108 0v10l317 210l-359 445v10h364v-445q5 14 13 30t26.5 43.5t41 52t59.5 52t80 47t103.5 32t129.5 12.5q89 0 161.5 -16.5t117.5 -43.5t77.5 -57.5t49 -64t23 -56.5t7.5 -40l319 -211v-10h-1530z" />
    <glyph glyph-name="i" unicode="i" horiz-adv-x="700" 
d="M166 676h366v-137h-366v137zM-100 0v10l449 267q-164 2 -324 -38v259h650v-259q-169 37 -324 38l449 -267v-10h-900z" />
    <glyph glyph-name="j" unicode="j" horiz-adv-x="1011" 
d="M569 686h383v-154h-383v154zM507 436v-289q-446 0 -562 -16q-85 -11 -85 -33q0 -17 60.5 -29t155.5 -18t181 -8.5t166 -2.5q244 0 367.5 26t152.5 96l-439 328v10h449v-345q-1 -107 -23 -184t-62 -126.5t-106.5 -78.5t-146 -40t-190.5 -11q-112 0 -199.5 11t-163.5 38
t-125.5 70t-77.5 110t-28 155q0 66 29 119.5t80.5 89t116 61.5t143 40t153 20.5t154.5 6.5z" />
    <glyph glyph-name="k" unicode="k" horiz-adv-x="1250" 
d="M-120 0v10l401 211l-392 444v10h401v-449l84 278q368 -57 743 0v-5l-333 -314l616 -176v-9h-1520zM776 177l-470 38l471 -203v166z" />
    <glyph glyph-name="l" unicode="l" horiz-adv-x="606" 
d="M-54 0v10l343 250l-389 405v10q179 -27 358.5 -27t271.5 27v-10l-225 -406l381 -249v-10h-740z" />
    <glyph glyph-name="m" unicode="m" horiz-adv-x="1893" 
d="M593 178q-66 0 -144.5 17t-136.5 33.5t-74 16.5l357 -235l362 239q-31 -11 -75.5 -24.5t-131.5 -30t-157 -16.5zM1331 178q-89 0 -217 33.5t-136 33.5l356 -234l361 238q-31 -11 -75.5 -24.5t-131.5 -30t-157 -16.5zM-95 0v10l314 239l-329 241v10h340v-228
q8 22 23.5 47.5t47 58.5t70.5 59t98 44.5t126 18.5q156 0 259 -69t111 -166q6 19 20.5 45t45.5 60.5t70.5 62.5t100.5 47.5t131 19.5q162 0 266.5 -73.5t104.5 -173.5l319 -243v-10h-2118z" />
    <glyph glyph-name="n" unicode="n" horiz-adv-x="1405" 
d="M746 155q-186 0 -451 80l450 -225l441 225q-223 -80 -440 -80zM-35 0v10l314 226l-329 254v10h340v-241q9 26 26 55t54 68.5t84.5 70t124 52.5t166.5 23q108 1 197 -26t142.5 -70t82.5 -93t29 -100l319 -229v-10h-1550z" />
    <glyph glyph-name="o" unicode="o" horiz-adv-x="1215" 
d="M25 245q0 86 80.5 154t212.5 104.5t289 36.5q163 0 294 -34.5t210 -102t79 -156.5q0 -85 -79 -151t-210.5 -99.5t-290.5 -33.5q-161 0 -292 31.5t-212 96.5t-81 154zM35 245q0 -7 14 -12.5t41.5 -9.5t58 -7t75 -4.5t80.5 -2.5t86 -1h80h74h58q578 0 578 39
q0 27 -186 38.5t-389 11.5t-386.5 -12t-183.5 -40z" />
    <glyph glyph-name="p" unicode="p" horiz-adv-x="1443" 
d="M215 29v203l-375 259v10h380v-223q27 115 183.5 183.5t410.5 68.5q284 0 444 -78.5t160 -216.5q0 -282 -499 -282q-101 0 -178.5 3t-157.5 12.5l-112 13.5t-129.5 21.5t-121.5 21.5q129 -92 336.5 -160t420.5 -107v-10h-1129v10zM1411 235q0 10 -57 21.5t-200 21.5
t-337 10q-195 0 -338 -10t-199 -22t-56 -22q0 -9 68.5 -18.5t208.5 -16t315 -6.5q163 0 304 7t216 16.5t75 18.5z" />
    <glyph glyph-name="q" unicode="q" horiz-adv-x="1291" 
d="M47 247q0 85 84 148.5t219 94t300 30.5q172 0 305.5 -29t216 -91t82.5 -151q0 -64 -49 -115t-133.5 -82.5t-191.5 -48t-227 -16.5q-117 0 -223 16q75 -53 296 -53h504l-200 -200h-301q-234 0 -332 66.5t-98 213.5q-116 33 -184 87t-68 130zM650 294h-53q-76 -4 -137 -69
q59 -1 189 -1q595 0 595 24q0 10 -68.5 20t-210 18t-315.5 8zM54 247q0 -17 323 -22q48 48 124 67q-126 -3 -231.5 -11t-160.5 -17t-55 -17z" />
    <glyph glyph-name="r" unicode="r" horiz-adv-x="1177" 
d="M-88 0v10l384 200l-406 279v11h410v-287q0 41 12.5 80.5t44 80t79 70t124.5 48.5t174 19q193 0 453 -73l-52 -257q-256 72 -533 72q-224 0 -289 -43l809 -200v-10h-1210z" />
    <glyph glyph-name="s" unicode="s" horiz-adv-x="1173" 
d="M915 11q-110 -38 -398 -38q-148 0 -244 8.5t-121.5 15t-88.5 26.5l-63 238q76 -17 162 -24q-61 68 -10 138q66 90 279 128q117 21 267 21q304 0 446 -83v-230q-56 32 -157 54q33 -20 47.5 -55t8.5 -72t-39.5 -72.5t-88.5 -54.5zM620 297q-358 0 -444 -62q142 -13 349 -13
q227 0 340.5 7.5t117.5 35.5q-153 32 -363 32z" />
    <glyph glyph-name="t" unicode="t" horiz-adv-x="1090" 
d="M77 235l-2 55q-16 -2 -48 -4.5t-47 -3.5l-90 233h1049v-233q-444 38 -852 9q35 -32 140 -56.5t242 -24.5q143 0 261 19t287 59l55 -234q-120 -37 -179 -53t-147.5 -30t-176.5 -14q-122 0 -219.5 25.5t-155 67t-87.5 89.5t-30 96zM74 313z" />
    <glyph glyph-name="u" unicode="u" horiz-adv-x="1211" 
d="M20 249l-20 251h1012l-20 -252l349 -239v-10h-350v226q-22 -241 -487 -241q-231 0 -357.5 70t-126.5 195zM987 248h1l-484 242l-482 -240q4 1 50 14t77 19.5t88 17t124 15t143 3.5q56 0 114 -4.5t101 -10.5t91.5 -15.5t74.5 -15.5t61.5 -15t40.5 -10z" />
    <glyph glyph-name="v" unicode="v" horiz-adv-x="1166" 
d="M519 0q0 263 -154 441h350l98 -419v478h350l-121 -500h-523z" />
    <glyph glyph-name="w" unicode="w" horiz-adv-x="1463" 
d="M554 500q-52 -51 -90 -113.5t-38 -116.5q0 -46 19.5 -67t41.5 -20q37 1 63.5 70.5t26.5 187.5q180 -201 140 -322q-9 -31 -26.5 -54t-51.5 -44.5t-95 -33t-146 -11.5q-178 0 -273 62.5t-95 173.5q0 84 33.5 148t123.5 140h367zM770 0q0 263 -193 441h314l123 -436v495
h444l-152 -500h-536z" />
    <glyph glyph-name="x" unicode="x" horiz-adv-x="1227" 
d="M702 0l-81 245l-81 -245h-490l51 200l512 50l-512 50l-51 200h490l81 -245l81 245h490l-51 -200l-512 -50l512 -50l51 -200h-490z" />
    <glyph glyph-name="y" unicode="y" horiz-adv-x="1060" 
d="M142 250l-158 250h1080l-129 -252l-136 -248q-29 -58 -53.5 -93.5t-67 -66.5t-92 -46t-136 -26.5t-190 -14.5t-263.5 -3h-366l199 200h395h62.5h73t74 0.5t79 1.5t73 3.5t71 6.5t58 9t49 12.5t30.5 16.5h-495zM158 256q172 62 384 61.5t383 -63.5l-391 243z" />
    <glyph glyph-name="z" unicode="z" horiz-adv-x="1222" 
d="M42 254l-112 249q190 -26 436.5 -31t445 3.5t372.5 25.5v-12l-612 -235h-530zM1122 255l170 -255h-1358v10l638 244z" />
    <glyph glyph-name="s_t" unicode="&#xfb06;" horiz-adv-x="2267" 
d="M935 11q-110 -38 -398 -38q-148 0 -255.5 8t-154 17t-107.5 25v238q76 -17 162 -24q-61 68 -10 138q66 90 279 128q117 21 267 21q304 0 446 -83v-230q-56 32 -157 54q33 -20 47.5 -55t8.5 -72t-39.5 -72.5t-88.5 -54.5zM1181 515h948v-233q-447 38 -851 8
q36 -31 140.5 -55.5t240.5 -24.5q143 0 261 19t287 59l55 -234q-120 -37 -179 -53t-147.5 -30t-176.5 -14q-122 0 -219.5 25.5t-155 67t-87.5 89.5t-30 96l-2 54q-53 -4 -84 -7v233zM640 297q-358 0 -444 -62q142 -13 349 -13q227 0 340.5 7.5t117.5 35.5q-153 32 -363 32z
" />
    </font>
</defs>
</svg>
